<svg xmlns="http://www.w3.org/2000/svg" viewBox="0 0 800 360" width="100%" height="100%">
  <defs>
    <marker id="arrow" viewBox="0 0 10 10" refX="8" refY="5" markerWidth="6" markerHeight="6" orient="auto-start-reverse">
      <path d="M 0 0 L 10 5 L 0 10 z" fill="#80BA24" />
    </marker>
  </defs>

  <rect width="100%" height="100%" fill="transparent" />

  <line x1="240" y1="67.5" x2="288" y2="67.5" stroke="#80BA24" stroke-width="2.5" marker-end="url(#arrow)"/>

  <line x1="480" y1="67.5" x2="538" y2="67.5" stroke="#80BA24" stroke-width="2.5" marker-end="url(#arrow)"/>

  <line x1="240" y1="207.5" x2="350" y2="275" stroke="#80BA24" stroke-width="2.5" marker-end="url(#arrow)"/>

  <line x1="420" y1="95" x2="455" y2="258" stroke="#80BA24" stroke-width="2.5" marker-end="url(#arrow)"/>

  <path d="M 60 67.5 L 30 67.5 Q 20 67.5 20 77.5 L 20 305 Q 20 315 30 315 L 348 315" fill="none" stroke="#80BA24" stroke-width="2.5" marker-end="url(#arrow)"/>

  <line x1="60" y1="155" x2="240" y2="155" stroke="#8FA0AA" stroke-width="1" stroke-dasharray="4,4"/>


  <rect x="60" y="40" width="180" height="55" rx="10" fill="#2A3840" stroke="#80BA24" stroke-width="2.5"/>
  <g transform="translate(98, 55)" fill="#80BA24" stroke="none">
    <!-- Rahmen -->
    <path d="M 5 0 L 2 0 Q 0 0 0 2 L 0 5" fill="none" stroke="#80BA24" stroke-width="2.2" stroke-linecap="round" stroke-linejoin="round"/>
    <path d="M 19 0 L 22 0 Q 24 0 24 2 L 24 5" fill="none" stroke="#80BA24" stroke-width="2.2" stroke-linecap="round" stroke-linejoin="round"/>
    <path d="M 0 19 L 0 22 Q 0 24 2 24 L 5 24" fill="none" stroke="#80BA24" stroke-width="2.2" stroke-linecap="round" stroke-linejoin="round"/>
    <path d="M 19 24 L 22 24 Q 24 24 24 22 L 24 19" fill="none" stroke="#80BA24" stroke-width="2.2" stroke-linecap="round" stroke-linejoin="round"/>
    <!-- Person Mitte -->
    <circle cx="12" cy="8" r="3"/>
    <path d="M 7 21 Q 7 15 12 15 Q 17 15 17 21 Z"/>
    <!-- Person Links -->
    <circle cx="4" cy="11" r="2"/>
    <path d="M 1 21 Q 1 16 4 16 Q 7 16 7 21 Z"/>
    <!-- Person Rechts -->
    <circle cx="20" cy="11" r="2"/>
    <path d="M 17 21 Q 17 16 20 16 Q 23 16 23 21 Z"/>
  </g>
  <text x="135" y="73" font-family="system-ui, -apple-system, sans-serif" font-size="16" font-weight="bold" fill="#E8ECF0">Zielgruppe</text>

  <rect x="300" y="40" width="180" height="55" rx="10" fill="#2A3840" stroke="#80BA24" stroke-width="2.5"/>
  <g transform="translate(332, 51)" fill="#80BA24" stroke="none">
    <rect x="0" y="0" width="22" height="18" rx="4"/>
    <path d="M 5 18 L 7 25 L 12 18 Z"/>
    <rect x="8" y="4" width="3" height="7" rx="1.5" fill="#2A3840"/>
    <circle cx="9.5" cy="14" r="1.5" fill="#2A3840"/>
  </g>
  <text x="375" y="73" font-family="system-ui, -apple-system, sans-serif" font-size="16" font-weight="bold" fill="#E8ECF0">Marketing</text>

  <rect x="550" y="40" width="180" height="55" rx="10" fill="#2A3840" stroke="#80BA24" stroke-width="2.5"/>
  <text x="585" y="75" font-family="system-ui, -apple-system, sans-serif" font-size="22" font-weight="bold" fill="#80BA24">#</text>
  <text x="613" y="73" font-family="system-ui, -apple-system, sans-serif" font-size="16" font-weight="bold" fill="#E8ECF0">Social Media</text>

  <rect x="60" y="180" width="180" height="55" rx="10" fill="#2A3840" stroke="#80BA24" stroke-width="2.5"/>
  <g transform="translate(100, 194)" fill="none" stroke="#80BA24" stroke-width="2" stroke-linecap="round" stroke-linejoin="round">
    <rect x="2" y="2" width="14" height="20" rx="2" />
    <rect x="5" y="6" width="8" height="4" fill="#80BA24" />
    <circle cx="6" cy="14" r="1" fill="#80BA24" stroke="none"/>
    <circle cx="9" cy="14" r="1" fill="#80BA24" stroke="none"/>
    <circle cx="12" cy="14" r="1" fill="#80BA24" stroke="none"/>
    <circle cx="6" cy="18" r="1" fill="#80BA24" stroke="none"/>
    <circle cx="9" cy="18" r="1" fill="#80BA24" stroke="none"/>
    <circle cx="12" cy="18" r="1" fill="#80BA24" stroke="none"/>
  </g>
  <text x="135" y="213" font-family="system-ui, -apple-system, sans-serif" font-size="16" font-weight="bold" fill="#E8ECF0">Kalkulation</text>

  <rect x="360" y="270" width="180" height="55" rx="10" fill="#2A3840" stroke="#80BA24" stroke-width="3.5"/>
  <text x="410" y="304" font-family="monospace" font-size="18" font-weight="bold" fill="#80BA24">&lt;/&gt;</text>
  <text x="450" y="303" font-family="system-ui, -apple-system, sans-serif" font-size="16" font-weight="bold" fill="#E8ECF0">Website</text>


  <text x="60" y="148" font-family="system-ui, -apple-system, sans-serif" font-size="13" fill="#8FA0AA">starten sofort</text>
  <text x="560" y="302" font-family="system-ui, -apple-system, sans-serif" font-size="13" fill="#8FA0AA">braucht alle Ergebnisse</text>

</svg>
